<?xml version="1.0" encoding="UTF-8"?>
<svg id="Layer_1" data-name="Layer 1" xmlns="http://www.w3.org/2000/svg" xmlns:xlink="http://www.w3.org/1999/xlink" viewBox="0 0 200 200">
  <defs>
    <style>
      .cls-1 {
        fill: url(#linear-gradient);
      }

      .cls-1, .cls-2 {
        stroke-width: 0px;
      }

      .cls-2 {
        fill: #101216;
      }
    </style>
    <linearGradient id="linear-gradient" x1="40.18" y1="41.23" x2="159.24" y2="160.29" gradientUnits="userSpaceOnUse">
      <stop offset="0" stop-color="#961a97"/>
      <stop offset=".36" stop-color="#52d05d"/>
      <stop offset=".7" stop-color="#eee904"/>
      <stop offset="1" stop-color="#1094dd"/>
    </linearGradient>
  </defs>
  <rect class="cls-2" width="200" height="200"/>
  <path class="cls-1" d="m121.49,159.53c.33.33.33.86,0,1.19l-4.67,4.67c-.16.16-.38.25-.59.25s-.43-.08-.59-.25l-15.03-15.03c-.16-.16-.38-.25-.59-.25s-.43.08-.59.25l-15.03,15.03c-.16.16-.38.25-.59.25s-.43-.08-.59-.25l-4.67-4.67c-.33-.33-.33-.86,0-1.19l15.03-15.03c.33-.33.33-.86,0-1.19l-15.03-15.03c-.33-.33-.33-.86,0-1.19l4.67-4.67c.16-.16.38-.25.59-.25s.43.08.59.25l15.03,15.03c.16.16.38.25.59.25s.43-.08.59-.25l15.03-15.03c.16-.16.38-.25.59-.25s.43.08.59.25l4.67,4.67c.33.33.33.86,0,1.19l-15.03,15.03c-.33.33-.33.86,0,1.19l15.03,15.03Zm25.4-27.54c-.21-.18-.46-.26-.74-.26s-.52.09-.74.26-.38.49-.5.95c-.16.59-.24,1.58-.24,2.98s.07,2.36.21,2.88c.14.52.32.87.53,1.04.21.17.46.26.74.26s.52-.09.74-.26.38-.49.5-.95c.16-.58.24-1.58.24-2.97s-.07-2.36-.21-2.88c-.14-.52-.32-.87-.53-1.05Zm35.17-32.47c-.83,48.17-33.75,82.55-81.83,82.55-47.08,0-83.67-38.48-82.26-84.03,1.01-26.22,14.57-50.4,39.37-66.38.07.03.72-.2.42.34-1.96,1.78-37.27,42.65-4.77,74.9,0,0,17.08,16.08,30.32.82,0,0,13.07-16.57-.17-41.69,0,0-7.55-12.52-21.14-2.08l4-10.5s11.51-10.4,26.02,1.6c0,0,6.06-9.86-1.65-20.36l9.34-16.75,9.19,16.59s-7.4,8.16-1.64,20.68c0,0,14.27-13.44,26.19-1.76l3.82,10.5s-14.9-8.25-21.05,1.97c-5.29,9.47-9.36,29.72.24,42.15,0,0,10.74,14.91,29.62-.88,0,0,34.72-30.48-3.56-74.54,0,0-2.09-1.81.26-.83,16.92,12.07,37.18,27.98,39.28,67.7Zm-131.89,40.27h-6.66v-3.24h5.98v-2.01h-5.98v-2.64h6.43v-2.02h-8.84v11.92h9.06v-2.01Zm9.28-.69c0-.73-.24-1.29-.71-1.7-.48-.4-1.33-.74-2.55-1.02s-1.93-.49-2.13-.64c-.15-.11-.23-.25-.23-.41,0-.19.09-.34.26-.46.26-.17.69-.25,1.29-.25.48,0,.84.09,1.1.27.26.18.43.44.52.77l2.15-.4c-.22-.75-.61-1.32-1.19-1.71-.57-.38-1.45-.58-2.63-.58-1.24,0-2.16.25-2.75.76-.59.51-.89,1.14-.89,1.89,0,.83.34,1.48,1.02,1.94.49.34,1.66.71,3.5,1.11.4.09.65.19.76.3.11.11.16.26.16.43,0,.25-.1.46-.3.61-.3.22-.74.33-1.33.33-.54,0-.95-.12-1.25-.35s-.5-.57-.59-1.01l-2.29.35c.21.82.66,1.47,1.34,1.94.69.48,1.62.72,2.79.72,1.29,0,2.27-.29,2.93-.85.66-.57.99-1.25.99-2.04Zm6.15,2.55l-.2-1.77c-.4.15-.71.22-.92.22-.15,0-.28-.04-.39-.11-.11-.08-.17-.17-.2-.29-.03-.12-.04-.53-.04-1.23v-3.48h1.56v-1.82h-1.56v-3.05l-2.29,1.33v1.72h-1.05v1.82h1.05v3.76c0,.81.02,1.34.07,1.61.06.37.17.67.32.89s.4.4.73.54c.33.14.7.21,1.11.21.67,0,1.27-.11,1.8-.34Zm3.68-2.14h-2.28v2.28h2.28v-2.28Zm57.28,20.61c0-1.51-.59-2.94-1.66-4.01l-12.21-12.21,12.21-12.21c2.21-2.21,2.21-5.8,0-8.01l-4.67-4.67c-1.07-1.07-2.49-1.66-4.01-1.66s-2.94.59-4.01,1.66l-12.21,12.21-12.21-12.21c-1.07-1.07-2.49-1.66-4.01-1.66s-2.94.59-4.01,1.66l-4.67,4.67c-2.21,2.21-2.21,5.8,0,8.01l12.21,12.21-12.21,12.21c-1.07,1.07-1.66,2.49-1.66,4.01s.59,2.94,1.66,4.01l4.67,4.67c1.07,1.07,2.49,1.66,4.01,1.66s2.94-.59,4.01-1.66l12.21-12.21,12.21,12.21c1.07,1.07,2.49,1.66,4.01,1.66s2.94-.59,4.01-1.66l4.67-4.67c1.07-1.07,1.66-2.49,1.66-4.01Zm12.81-27.7c.01-.45.12-.81.31-1.08.2-.27.52-.48.98-.63l-.45-.94c-.49.17-.89.41-1.2.72s-.53.65-.65,1.03c-.12.38-.17.9-.17,1.56v1.63h2.28v-2.28h-1.11Zm10.65,3.5c0-2.26-.39-3.88-1.16-4.85-.65-.82-1.55-1.24-2.71-1.24s-2.05.41-2.7,1.22c-.78.99-1.17,2.6-1.17,4.85s.35,3.88,1.06,4.77,1.65,1.34,2.8,1.34,2.05-.41,2.7-1.22c.78-.99,1.17-2.61,1.17-4.86Zm7.37-6.09h-1.85c-.26.73-.74,1.36-1.44,1.91s-1.35.91-1.94,1.11v2.07c1.13-.37,2.12-.95,2.95-1.73v8.61h2.28v-11.97Z"/>
</svg>